<svg xmlns="http://www.w3.org/2000/svg" version="1.1" xmlns:xlink="http://www.w3.org/1999/xlink" xmlns:svgjs="http://svgjs.dev/svgjs" width="128" height="128" viewBox="0 0 128 128"><g transform="matrix(0.8046875,0,0,0.8046875,12.760752631578946,16.205811187848923)"><svg viewBox="0 0 95 89" data-background-color="#1d2f39" preserveAspectRatio="xMidYMid meet" height="119" width="128" xmlns="http://www.w3.org/2000/svg" xmlns:xlink="http://www.w3.org/1999/xlink"><g id="tight-bounds" transform="matrix(1,0,0,1,-0.24049999999999727,-0.07873876576445582)"><svg viewBox="0 0 95.481 89.15747753152893" height="89.15747753152893" width="95.481"><g><svg viewBox="0 0 95.481 89.15747753152893" height="89.15747753152893" width="95.481"><g><svg viewBox="0 0 95.481 89.15747753152893" height="89.15747753152893" width="95.481"><g id="textblocktransform"><svg viewBox="0 0 95.481 89.15747753152893" height="89.15747753152893" width="95.481" id="textblock"><g><svg viewBox="0 0 95.481 89.15747753152893" height="89.15747753152893" width="95.481"><g><svg viewBox="0 0 95.481 89.15747753152893" height="89.15747753152893" width="95.481"><g><svg xmlns="http://www.w3.org/2000/svg" xmlns:xlink="http://www.w3.org/1999/xlink" version="1.1" x="0" y="0" viewBox="5.937999999999996 7.713999999999999 51.213885054995316 47.82208822795164" enable-background="new 0 0 64 64" xml:space="preserve" height="89.15747753152893" width="95.481" class="icon-icon-0" data-fill-palette-color="accent" id="icon-0"><g fill="#cd2c2c" data-fill-palette-color="accent"><g fill="#cd2c2c" data-fill-palette-color="accent"><path fill-rule="evenodd" clip-rule="evenodd" d="M56.819 9.154c-6.997-0.822-13.866-0.146-19.432-0.932 0.158 0.042 0.241 0.126-0.009 0.212-3.537-0.186-4.089-0.159-6.48 0.24 0.027-0.453 0.793-0.167 0.72-0.72-0.728 0.424-1.752 0.732-2.16-0.24-0.72 0-1.44 0-2.16 0 0.053 0.187 0.201 0.279 0.48 0.24-1.164 0.599-2.453 0.701-1.68-0.24-0.16 0-0.32 0-0.48 0-0.836 0.987-2.808-0.297-3.6 0.96-0.5-0.224-0.457-0.747-1.44-0.96-0.08 0-0.16 0-0.24 0-0.501 0.379-1.262 0.498-2.16 0.48 0-0.16 0-0.32 0-0.48-0.88 0-1.76 0-2.64 0-2.705 1.102-5.679-0.423-8.64 0.72-1.296 1.248-0.024 2.674-0.24 3.84-0.495-0.128-0.058-1.136-0.72-0.48 0 2.4 0 4.8 0 7.2 0.448 8.559 0.339 20.323 0.24 27.36 0.333 0.388 0.68 0.76 0.96 1.2 6.08-0.181 12.988 0.64 20.16-0.24 0.04 0.962 2.663-0.073 3.12 0.24-0.437 1.324 0.51 3.599-0.48 4.8-2.693 0.737-10.853-1.914-9.12 2.88 6.362 0.727 14.07-0.064 19.44-0.24 1.289-0.042 3.383 0.606 3.12-1.439-1.176-1.344-8.291-0.408-10.32-0.721 0-1.92 0-3.84 0-5.76 8.707-0.158 15.505 0.365 23.521 0C57.533 35.465 57.062 21.163 56.819 9.154zM54.899 44.914c-5.151-0.105-9.276-0.326-13.44-0.479-0.427-0.438-2.583 0.291-4.32-0.48 1.853 0.704 0.396-0.042-0.239 0.96-1.09-0.298 0.414-0.697-0.24-1.199-0.281 0.038-0.203 0.438-0.24 0.72-1.911-1.274-1.767-0.276-3.84 0 1.626-1.049-1.832-0.337-2.64 0.24-0.059-1.401-1.172-0.689-1.92-0.48-2.635-0.469-7.184-0.294-10.08 0.48 0.18-0.454 0.716-0.167 0.24-0.721-2.402 0.038-5.382 0.203-8.16 0.24-0.709-12.516-0.12-22.532-0.48-32.16 7.254-0.747 15.696-0.658 23.28-0.72 7.022-0.057 14.363-0.654 22.081 0C54.846 21.609 54.938 33.835 54.899 44.914z" fill="#cd2c2c" data-fill-palette-color="accent"></path><path fill-rule="evenodd" clip-rule="evenodd" d="M33.059 18.514c-1.591 5.61-2.714 11.654-4.08 18 0.388 0.411 1.004 0.596 1.92 0.479 0.323-0.717 0.742-1.338 0.96-2.16 0.342-0.022 0.126-0.77 1.2-1.439-0.254-0.175-0.027-0.722-0.479-1.2 0.24 0 0.479 0 0.72 0-0.42-3.669 3.891-11.535 1.2-13.92C33.934 18.269 33.792 18.688 33.059 18.514z" fill="#cd2c2c" data-fill-palette-color="accent"></path><path fill-rule="evenodd" clip-rule="evenodd" d="M25.619 30.754c-0.704-1.216-2.134-1.706-2.88-2.88 1.545-1.01 4.522-5.098 1.44-5.52-1.83-0.251-1.847 1.614-2.64 2.64-0.956 1.235-2.949 1.948-2.64 3.36 2.047 1.633 2.845 4.515 6.24 4.8 0.14-0.917-0.008-0.751 0.72-1.2C24.96 31.765 25.101 30.532 25.619 30.754z" fill="#cd2c2c" data-fill-palette-color="accent"></path><path fill-rule="evenodd" clip-rule="evenodd" d="M38.339 24.034c1.138 1.503 3.003 2.278 3.84 4.08-0.894 1.666-3.15 1.97-3.12 4.56 0.27 0.051 0.374 0.267 0.48 0.48 3.442-0.356 4.482-1.808 6.479-5.28C44.228 26.163 40.639 19.97 38.339 24.034z" fill="#cd2c2c" data-fill-palette-color="accent"></path></g></g></svg></g></svg></g></svg></g></svg></g></svg></g></svg></g><defs></defs></svg><rect width="95.481" height="89.15747753152893" fill="none" stroke="none" visibility="hidden"></rect></g></svg></g></svg>